<?xml version="1.0" standalone="no"?><!DOCTYPE svg PUBLIC "-//W3C//DTD SVG 1.1//EN" "http://www.w3.org/Graphics/SVG/1.1/DTD/svg11.dtd"><svg class="icon" width="200px" height="200.00px" viewBox="0 0 1024 1024" version="1.1" xmlns="http://www.w3.org/2000/svg"><path d="M1001.837653 658.773333a457.198933 457.198933 0 0 1-90.965333 128.512l-4.608 77.482667h-28.842667a370.722133 370.722133 0 0 0-11.776-75.776s-196.437333-120.661333-68.266666-388.437333c4.778667-10.24 9.898667-20.309333 15.530666-30.037334a827.733333 827.733333 0 0 1 74.410667-111.786666l0.170667 1.024v-1.024s26.624 55.637333 40.277333 65.706666 38.912 48.128 58.197333 95.744 46.08 167.936 15.872 238.592z m-118.613333-464.725333l-0.341333-1.194667a1044.48 1044.48 0 0 0-96.085334 138.069334q-10.752 18.176-19.968 37.376c-3.413333 6.997333-6.826667 14.165333-10.069333 21.333333a937.6256 937.6256 0 0 1-310.101333 46.933333C204.653653 436.565333 8.557653 364.885333 8.557653 276.48V159.914667C8.557653 71.68 204.653653 0 446.658987 0s438.101333 71.68 438.101333 159.914667v36.181333c-1.024-2.048-1.536-3.242667-1.536-3.242667v1.194667z m-436.565333 315.733333a988.347733 988.347733 0 0 0 279.552-36.864 350.856533 350.856533 0 0 0 4.096 218.112 984.2688 984.2688 0 0 1-283.648 38.058667C204.653653 729.088 8.557653 657.578667 8.557653 569.173333V349.696c0 88.405333 196.096 160.085333 438.101334 160.085333z m0 292.522667a927.880533 927.880533 0 0 0 314.709333-48.810667 316.194133 316.194133 0 0 0 93.696 95.232c3.413333 13.141333 8.704 38.912 12.117333 60.074667-52.906667 66.56-221.184 115.2-420.522666 115.2C204.653653 1024 8.557653 952.32 8.557653 863.914667V642.218667c0 88.405333 196.096 160.085333 438.101334 160.085333z" /></svg>