<?xml version="1.0" standalone="no"?><!DOCTYPE svg PUBLIC "-//W3C//DTD SVG 1.1//EN" "http://www.w3.org/Graphics/SVG/1.1/DTD/svg11.dtd"><svg class="icon" width="200px" height="200.00px" viewBox="0 0 1024 1024" version="1.1" xmlns="http://www.w3.org/2000/svg"><path d="M696.824 635.046c-9.5-0.772-16.73-1.862-24.062-1.862-62.424-0.144-124.89 0.138-187.354-0.304-13.288-0.124-27.06-1.054-39.678-4.7-36.5-10.616-55.416-38.486-52.704-74.58 2.39-31.332 28.518-58.17 62.972-63.416 14.908-2.268 30.118-3.604 45.188-3.542 137.77 0.568 275.524 1.496 413.274 2.388 5.166 0.018 10.328 0.466 17.54 0.79-2.168 5.328-3.424 9.542-5.49 13.308C861.594 622.59 796.456 741.89 731.884 861.512c-6.34 11.726-13.348 16.528-27.082 16.486a52873.056 52873.056 0 0 0-392.25-0.042c-13.61 0.06-20.882-4.698-27.364-16.426-62.546-113.406-125.54-226.568-188.854-339.546-5.854-10.454-5.712-18.514 0-28.864a61210.354 61210.354 0 0 0 180.428-332.216c5.712-10.572 11.97-14.948 24.304-14.906 137.166 0.484 274.35 0.484 411.554 0.264 10.27 0 17.094 2.35 22.766 11.85 48.936 82.23 98.356 164.142 147.576 246.192 1.74 2.918 2.876 6.22 4.354 9.64-1.902 1.178-3.322 2.796-4.738 2.818-50.778 0.202-101.536 0.646-152.334-0.222-5.814-0.082-13.368-6.422-16.912-11.91-20.842-32.348-41.158-65.1-60.744-98.214-6.684-11.262-14.34-16.708-27.79-16.65-75.286 0.348-150.614 0.162-225.92-0.24-11.504-0.064-17.886 4.798-23.192 14.624-35.708 66.252-71.68 132.342-108.16 198.19-5.57 10.044-4.962 17.662 0.446 27.364a21292.25 21292.25 0 0 1 115.27 208.26c5.854 10.692 12.962 14.582 24.974 14.522 67.71-0.466 135.442-0.466 203.174 0 11.99 0.06 19.08-4.05 25.074-14.502 17.176-29.834 35.506-59.002 53.23-88.492 2.308-3.81 3.99-7.984 7.13-14.446z" /></svg>